<svg xmlns="http://www.w3.org/2000/svg" viewBox="0 0 300 180" role="img" aria-label="Cota de malla">
  <rect width="300" height="180" fill="#241b12"/>
  <g fill="none" stroke="#b8c0c9" stroke-width="2">
    <path d="M110 40 H190 L200 60 V150 H100 V60 Z"/>
  </g>
  <g fill="#9aa3ac">
    <circle cx="120" cy="70" r="3"/><circle cx="135" cy="70" r="3"/><circle cx="150" cy="70" r="3"/><circle cx="165" cy="70" r="3"/><circle cx="180" cy="70" r="3"/>
    <circle cx="127" cy="85" r="3"/><circle cx="142" cy="85" r="3"/><circle cx="157" cy="85" r="3"/><circle cx="172" cy="85" r="3"/>
    <circle cx="120" cy="100" r="3"/><circle cx="135" cy="100" r="3"/><circle cx="150" cy="100" r="3"/><circle cx="165" cy="100" r="3"/><circle cx="180" cy="100" r="3"/>
    <circle cx="127" cy="115" r="3"/><circle cx="142" cy="115" r="3"/><circle cx="157" cy="115" r="3"/><circle cx="172" cy="115" r="3"/>
    <circle cx="120" cy="130" r="3"/><circle cx="135" cy="130" r="3"/><circle cx="150" cy="130" r="3"/><circle cx="165" cy="130" r="3"/><circle cx="180" cy="130" r="3"/>
  </g>
</svg>
